<?xml version="1.0" encoding="utf-8"?>
<!-- Generator: Adobe Illustrator 25.2.3, SVG Export Plug-In . SVG Version: 6.00 Build 0)  -->
<svg version="1.1" id="Layer_1" xmlns="http://www.w3.org/2000/svg" xmlns:xlink="http://www.w3.org/1999/xlink" x="0px" y="0px"
	 viewBox="0 0 1121.3 934.1" style="enable-background:new 0 0 1121.3 934.1;" xml:space="preserve">
<style type="text/css">
	.st0{fill-rule:evenodd;clip-rule:evenodd;fill:#97845C;}
</style>
<g>
	<path class="st0" d="M746.5,8.3c0-4.6-3.7-8.3-8.3-8.3H382.3c-4.6,0-8.3,3.7-8.3,8.3v37.5h326.7v33.2H374c0.4,19.6-0.6,43.4,3,62.4
		h46.6c-1.1-5.5-2-11-2.6-16.6h324.6C748.8,89.2,746.5,45.2,746.5,8.3z"/>
	<path class="st0" d="M649.9,238.2h56.9c-10.3,16.3-22,31.6-34.9,45.8H516c14,12.5,28.8,23.9,44.3,34.3h75.9
		c-23.5,20.3-48.9,38.4-75.9,53.8c-80.7-46.6-157.9-120.3-180-214.1h360c-3.7,15.8-9,31.1-15.7,45.8H447.4c7,12.1,15,23.6,24,34.3
		L649.9,238.2z"/>
	<g>
		<path d="M86.6,475H6.2C2.9,475,0.1,477.6,0,481c0,0.1,0,0.2,0,0.3v235.6c-0.1,3.3,2.6,6.1,5.9,6.2c0.1,0,0.2,0,0.3,0h32
			c3.3,0.1,6.1-2.6,6.2-5.9c0-0.1,0-0.2,0-0.3v-94.7h42.5c41.8,0,69.9-29.2,69.9-72.7C156.8,505,128.6,475,86.6,475z M112.4,550.1
			c0,21.6-12.5,35.6-31.7,35.6H44.4v-71.8h36.3C99.9,513.9,112.4,528.1,112.4,550.1z"/>
		<path d="M308.8,612.8c25.5-10,40.1-33.7,40.1-64.8c0-43.7-27.8-73-69.2-73h-80.4c-3.3-0.1-6.1,2.6-6.2,5.9c0,0.1,0,0.2,0,0.3
			v235.6c-0.1,3.3,2.6,6.1,5.9,6.2c0.1,0,0.2,0,0.3,0h32c3.3,0.1,6.1-2.6,6.2-5.9c0-0.1,0-0.2,0-0.3v-98.9l29-0.1
			c0.1,0.1,0.1,0.1,0.2,0.2l0,0l37.9,100.1c0.9,2.9,3.7,4.9,6.8,4.9h33.4c1.8,0.1,3.6-0.7,4.7-2.1c1-1.7,1.1-3.7,0.3-5.5
			L308.8,612.8z M237.5,513.8h36.3c18.6,0,30.7,13.7,30.7,34.9c0,20.5-12,33.8-30.7,33.8h-36.3L237.5,513.8z"/>
		<path d="M462.7,472.6c-47.4,0-79.3,31.2-79.3,77.5v98.1c0,46.6,31.9,77.9,79.3,77.9c47.8,0,80-31.3,80-77.9v-98.1
			C542.7,503.8,510.5,472.6,462.7,472.6z M427.8,549.1c0-22.5,14-37.6,34.9-37.6c21.3,0,35.6,15.1,35.6,37.6V650
			c0,22.3-14.3,37.3-35.6,37.3c-20.9,0-34.9-15-34.9-37.3V549.1z"/>
		<path d="M726.1,475.4H576.5c-3.3-0.1-6.1,2.6-6.2,5.9c0,0.1,0,0.2,0,0.3v26.8c-0.1,3.4,2.6,6.1,5.9,6.2c0.1,0,0.2,0,0.3,0h51.6
			v202.2c-0.1,3.3,2.6,6.1,5.9,6.2c0.1,0,0.2,0,0.3,0h32c3.3,0.1,6.1-2.6,6.2-5.9c0-0.1,0-0.2,0-0.3V514.6h53.7
			c3.3,0.1,6.1-2.6,6.2-5.9c0-0.1,0-0.2,0-0.3v-26.8c0.1-3.3-2.6-6.1-5.9-6.2C726.3,475.4,726.2,475.4,726.1,475.4z"/>
		<path d="M834,472.6c-47.4,0-79.3,31.2-79.3,77.5v98.1c0,46.6,31.8,77.9,79.3,77.9c47.8,0,80-31.3,80-77.9v-98.1
			C914,503.8,881.8,472.6,834,472.6z M869.5,650c0,22.3-14.3,37.3-35.6,37.3c-20.9,0-34.9-15-34.9-37.3V549.1
			c0-22.5,14-37.6,34.9-37.6c21.3,0,35.6,15.1,35.6,37.6V650z"/>
		<path d="M1115.1,475.4h-31.7c-3.3-0.1-6.1,2.6-6.2,5.9c0,0.1,0,0.2,0,0.3v145.9l-74.5-147.9c-1.2-2.6-3.8-4.3-6.7-4.2h-32
			c-3.3-0.1-6.1,2.6-6.2,5.9c0,0.1,0,0.2,0,0.3v235.2c-0.1,3.3,2.6,6.1,5.9,6.2c0.1,0,0.2,0,0.3,0h31.7c3.3,0.1,6.1-2.6,6.2-5.9
			c0-0.1,0-0.2,0-0.3l-0.3-146.6l74.8,148.6c1.2,2.6,3.8,4.3,6.7,4.2h32c3.3,0.1,6.1-2.6,6.2-5.9c0-0.1,0-0.2,0-0.3V481.6
			c0.1-3.3-2.6-6.1-5.9-6.2C1115.3,475.4,1115.2,475.4,1115.1,475.4z"/>
	</g>
	<g>
		<path d="M275.4,813.7h-54.7c-1.9,0-3.4,1.4-3.5,3.3c0,0,0,0.1,0,0.1v97.8c0,1.9,1.4,3.4,3.3,3.5c0,0,0.1,0,0.1,0h54.7
			c1.9,0,3.4-1.4,3.5-3.3c0,0,0-0.1,0-0.1v-9.1c0-1.9-1.4-3.4-3.3-3.5c0,0-0.1,0-0.1,0h-40.3v-28.6h26c1.9,0,3.4-1.4,3.5-3.3
			c0,0,0-0.1,0-0.1v-9.1c0-1.9-1.4-3.4-3.3-3.5c0,0-0.1,0-0.1,0h-26v-28.2h40.3c1.9,0,3.4-1.4,3.5-3.3c0,0,0-0.1,0-0.1v-9.1
			c0-1.9-1.4-3.4-3.3-3.5C275.5,813.6,275.4,813.6,275.4,813.7z"/>
		<path d="M377.7,812.5c-19.1,0-32,13-32,32.4v42.7c0,15.8,8.9,27.6,23,30.9v12.1c-0.1,1.9,1.4,3.4,3.3,3.5c0.1,0,0.1,0,0.2,0h10.9
			c1.9,0,3.4-1.4,3.5-3.3c0-0.1,0-0.1,0-0.2v-12.1c14.2-3.4,23-15.2,23-31v-42.7C409.6,825.5,396.8,812.5,377.7,812.5z M391.8,888.2
			c0,9.2-5.7,15.4-14.1,15.4s-14.1-6.2-14.1-15.4v-44.3c0-9.2,5.7-15.4,14.1-15.4s14.1,6.2,14.1,15.4V888.2z"/>
		<path d="M541.8,813.7h-10.9c-1.9,0-3.4,1.4-3.5,3.3c0,0,0,0.1,0,0.1v70.5c0,9.5-6,16-15,16s-14.8-6.4-14.8-16v-70.5
			c0-1.9-1.4-3.4-3.3-3.5c0,0-0.1,0-0.1,0h-10.9c-1.9,0-3.4,1.4-3.5,3.3c0,0,0,0.1,0,0.1v69.6c0,19.6,13.1,32.8,32.7,32.8
			s32.8-13.2,32.8-32.8v-69.6c0-1.9-1.4-3.4-3.3-3.5C541.9,813.6,541.9,813.6,541.8,813.7z"/>
		<path d="M622.1,813.7H633c1.9,0,3.5,1.5,3.5,3.5l0,0v97.8c0,1.9-1.5,3.5-3.5,3.5h-10.9c-1.9,0-3.5-1.5-3.5-3.5c0,0,0,0,0,0v-97.8
			C618.6,815.2,620.2,813.7,622.1,813.7z"/>
		<path d="M769,813.7h-60.3c-1.9,0-3.4,1.4-3.5,3.3c0,0.1,0,0.1,0,0.2v9.2c0,1.9,1.4,3.4,3.3,3.5c0.1,0,0.1,0,0.2,0h20.7v85.2
			c0,1.9,1.4,3.4,3.3,3.5c0.1,0,0.1,0,0.2,0h10.9c1.9,0,3.4-1.4,3.5-3.3c0,0,0-0.1,0-0.1v-85.2H769c1.9,0,3.4-1.4,3.5-3.3
			c0-0.1,0-0.1,0-0.2v-9.2c0-1.9-1.4-3.4-3.3-3.5C769.1,813.6,769.1,813.6,769,813.7z"/>
		<path d="M900.7,813.7h-11.8c-1.5-0.1-2.9,0.9-3.4,2.3l-15.7,37.5L854,816.2c-0.4-1.5-1.9-2.6-3.5-2.5h-11.6
			c-1.7-0.1-3.2,1.2-3.3,3c0,0.5,0.1,1.1,0.3,1.6l25,55.8v40.8c0,1.9,1.4,3.4,3.3,3.5c0,0,0.1,0,0.1,0h10.8c1.9,0,3.4-1.4,3.5-3.3
			c0,0,0-0.1,0-0.1V874l25.2-55.8c0.8-1.6,0.1-3.4-1.4-4.2C901.8,813.8,901.3,813.7,900.7,813.7L900.7,813.7z"/>
		<rect x="82.7" y="861.8" width="71" height="12.1"/>
		<rect x="965.4" y="861.8" width="71" height="12.1"/>
	</g>
</g>
</svg>
